<?xml version="1.0" standalone="no"?>
<!DOCTYPE svg PUBLIC "-//W3C//DTD SVG 20010904//EN"
 "http://www.w3.org/TR/2001/REC-SVG-20010904/DTD/svg10.dtd">
<svg version="1.0" xmlns="http://www.w3.org/2000/svg"
 width="512.000000pt" height="512.000000pt" viewBox="0 0 512.000000 512.000000"
 preserveAspectRatio="xMidYMid meet">
<metadata>
Created by potrace 1.14, written by Peter Selinger 2001-2017
</metadata>
<g transform="translate(0.000000,512.000000) scale(0.100000,-0.100000)"
fill="#000000" stroke="none">
<path d="M390 5104 c-30 -8 -80 -26 -110 -41 -72 -35 -188 -151 -223 -223 -61
-126 -57 23 -57 -2280 0 -2303 -4 -2154 57 -2280 35 -72 151 -188 223 -223
126 -61 -23 -57 2280 -57 2303 0 2154 -4 2280 57 72 35 188 151 223 223 61
126 57 -23 57 2280 0 2303 4 2154 -57 2280 -35 72 -151 188 -223 223 -127 61
23 57 -2285 56 -1816 0 -2118 -2 -2165 -15z m2605 -924 c168 -22 286 -82 416
-210 126 -126 207 -276 244 -454 21 -102 21 -280 0 -382 -39 -188 -151 -377
-286 -484 l-50 -39 28 -17 c93 -56 142 -92 185 -132 113 -105 203 -261 245
-421 32 -122 37 -326 10 -435 -82 -332 -354 -583 -712 -657 -84 -17 -149 -19
-922 -19 l-833 0 0 1630 0 1630 803 0 c441 0 834 -5 872 -10z"/>
<path d="M1770 3275 l0 -506 558 3 557 3 67 33 c120 59 236 208 267 342 16 67
13 204 -5 274 -36 141 -132 262 -251 319 l-68 32 -562 3 -563 3 0 -506z"/>
<path d="M1770 1855 l0 -526 593 3 c576 3 593 4 648 24 206 78 349 282 349
498 0 149 -54 280 -160 387 -71 72 -136 110 -218 128 -36 7 -242 11 -632 11
l-580 0 0 -525z"/>
</g>
</svg>
