<?xml version="1.0" standalone="no"?>
<!DOCTYPE svg PUBLIC "-//W3C//DTD SVG 20010904//EN"
 "http://www.w3.org/TR/2001/REC-SVG-20010904/DTD/svg10.dtd">
<svg version="1.0" xmlns="http://www.w3.org/2000/svg"
 width="512.000000pt" height="512.000000pt" viewBox="0 0 512.000000 512.000000"
 preserveAspectRatio="xMidYMid meet">
<metadata>
Created by potrace 1.14, written by Peter Selinger 2001-2017
</metadata>
<g transform="translate(0.000000,512.000000) scale(0.100000,-0.100000)"
fill="#000000" stroke="none">
<path d="M390 5104 c-30 -8 -80 -26 -110 -41 -72 -35 -188 -151 -223 -223 -61
-126 -57 23 -57 -2280 0 -2303 -4 -2154 57 -2280 35 -72 151 -188 223 -223
126 -61 -23 -57 2280 -57 2303 0 2154 -4 2280 57 72 35 188 151 223 223 61
126 57 -23 57 2280 0 2303 4 2154 -57 2280 -35 72 -151 188 -223 223 -127 61
23 57 -2285 56 -1816 0 -2118 -2 -2165 -15z m2470 -1119 c331 -50 510 -202
582 -492 30 -123 30 -373 0 -516 -26 -122 -85 -246 -152 -320 l-50 -54 59 -37
c124 -76 235 -229 277 -381 22 -81 30 -294 14 -409 -39 -290 -196 -504 -437
-598 -159 -62 -142 -61 -920 -65 l-713 -4 0 1445 0 1446 623 0 c493 0 642 -3
717 -15z"/>
<path d="M2100 3165 l0 -377 308 4 c270 3 312 6 350 22 87 38 120 112 129 296
11 224 -23 353 -108 400 -44 25 -44 25 -361 28 l-318 3 0 -376z"/>
<path d="M2100 1959 l0 -390 363 3 c400 3 406 4 475 70 68 67 104 255 83 436
-21 175 -72 239 -211 261 -36 6 -210 11 -387 11 l-323 0 0 -391z"/>
</g>
</svg>
